<svg id="Layer_1" data-name="Layer 1" xmlns="http://www.w3.org/2000/svg" viewBox="0 0 337.41 74.57"><defs><style>.cls-1{fill:none;}.cls-2{fill:#fff;}.cls-3{font-size:42.38px;font-family:Microsoft-Yi-Baiti, Microsoft Yi Baiti;}.cls-4{font-size:19.94px;font-family:MyriadPro-Regular, Myriad Pro;}.cls-5{letter-spacing:-0.01em;}.cls-6{letter-spacing:-0.02em;}</style></defs><title>newlogo</title><path class="cls-1" d="M194.1,13.18c42.7,0,78,28.07,82.67,64.07h2.44c-4.7-37.16-41.07-66.17-85.11-66.17s-80.41,29-85.11,66.17h2.44C116.12,41.25,151.39,13.18,194.1,13.18Z" transform="translate(-38.08 -7.67)"/><path d="M194.1,13.18c-42.7,0-78,28.07-82.67,64.07H127c4.58-28.63,32.88-50.67,67.12-50.67s62.54,22,67.12,50.67h15.55C272.08,41.25,236.8,13.18,194.1,13.18Z" transform="translate(-38.08 -7.67)"/><path d="M194.1,11.08c44,0,80.41,29,85.11,66.17h4c-4.7-39.1-42.79-69.58-89.08-69.58S109.72,38.15,105,77.25h4C113.69,40.09,150.06,11.08,194.1,11.08Z" transform="translate(-38.08 -7.67)"/><rect class="cls-2" y="23.96" width="156.53" height="26.51"/><text class="cls-3" transform="translate(0 48.74)">RAINBOW </text><rect class="cls-2" x="158.67" y="23.96" width="156.53" height="26.51"/><text class="cls-4" transform="translate(92.92 69.58)"><tspan class="cls-5">M</tspan><tspan x="15.83" y="0">AN</tspan><tspan class="cls-6" x="41.16" y="0">A</tspan><tspan x="53.07" y="0">GEMENT</tspan></text><rect class="cls-2" x="160.42" y="23.96" width="156.53" height="26.51"/><text class="cls-3" transform="translate(160.42 48.74)">PROPERTY</text></svg>